<svg xmlns="http://www.w3.org/2000/svg" xmlns:xlink="http://www.w3.org/1999/xlink" width="380" height="838.883" viewBox="0 0 380 838.883">
  <defs>
    <linearGradient id="linear-gradient" x1="0.25" y1="0.198" x2="0.5" y2="0.304" gradientUnits="objectBoundingBox">
      <stop offset="0" stop-color="#141614" stop-opacity="0.949"/>
      <stop offset="0.452" stop-color="#1d1e1d" stop-opacity="0.741"/>
      <stop offset="1" stop-color="#071007" stop-opacity="0.8"/>
    </linearGradient>
  </defs>
  <g id="linear_gradient" data-name="linear gradient" fill="url(#linear-gradient)">
    <path d="M 0.5000152587890625 838.2218017578125 L 0.5000152587890625 0.5000447630882263 L 379.4404907226563 0.5000447630882263 C 379.0085144042969 4.30560302734375 376.34912109375 27.36911582946777 371.4187927246094 62.60071182250977 C 368.2579040527344 85.18837738037109 364.7958068847656 108.2837142944336 361.12890625 131.2451629638672 C 356.5452270507813 159.9464874267578 351.6266784667969 188.5181579589844 346.5097961425781 216.1665954589844 C 333.4856872558594 286.5413818359375 319.114013671875 351.4319458007813 303.7940063476563 409.0357055664063 C 294.6985778808594 443.2347106933594 285.16357421875 475.2116088867188 275.4537963867188 504.0780334472656 C 264.7745666503906 535.8264770507813 253.6201324462891 564.5950317382813 242.3002319335938 589.584716796875 C 236.5180206298828 602.3494873046875 230.3383483886719 614.9088134765625 223.9328002929688 626.9140625 C 217.8060150146484 638.396728515625 211.3097991943359 649.6776123046875 204.6245727539063 660.4432373046875 C 192.1878967285156 680.4711303710938 178.6410217285156 699.4560546875 164.3603515625 716.87060546875 C 140.3115692138672 746.1969604492188 113.7642364501953 771.6693725585938 85.45579528808594 792.5803833007813 C 74.33623504638672 800.7941284179688 62.91512680053711 808.3150634765625 51.50968170166016 814.9341430664063 C 42.38679122924805 820.2283935546875 33.25379180908203 824.960693359375 24.36434936523438 828.9995727539063 C 11.47000408172607 834.8580322265625 2.825347661972046 837.54248046875 0.5000152587890625 838.2218017578125 Z" stroke="none"/>
    <path d="M 1.000030517578125 0.99993896484375 L 1.000030517578125 837.55126953125 C 4.00909423828125 836.6406860351563 12.2664794921875 833.9468383789063 24.15756225585938 828.5442504882813 C 33.03201293945313 824.5122680664063 42.15011596679688 819.78759765625 51.2586669921875 814.5015869140625 C 62.64834594726563 807.8917236328125 74.05389404296875 800.3810424804688 85.15869140625 792.1781616210938 C 113.4340209960938 771.2916870117188 139.9511260986328 745.847900390625 163.9736785888672 716.5535888671875 C 178.2405700683594 699.1558227539063 191.7745666503906 680.1888427734375 204.1999053955078 660.1795043945313 C 210.8792419433594 649.4230346679688 217.3700103759766 638.1517333984375 223.4916839599609 626.6785888671875 C 229.8921203613281 614.6829223632813 236.0670166015625 602.1333618164063 241.8447875976563 589.3783569335938 C 253.1575622558594 564.4044799804688 264.3055725097656 535.6522216796875 274.979248046875 503.9205017089844 C 284.6854553222656 475.0648193359375 294.2172241210938 443.0989379882813 303.3096923828125 408.9110412597656 C 318.626220703125 351.3207092285156 332.9950256347656 286.4439086914063 346.0167846679688 216.0829467773438 C 351.1329040527344 188.438720703125 356.05078125 159.8712768554688 360.6339111328125 131.1741333007813 C 364.3003540039063 108.2156982421875 367.7620239257813 85.12335205078125 370.9225769042969 62.53839111328125 C 375.6534423828125 28.73321533203125 378.2931518554688 6.1324462890625 378.8802490234375 0.99993896484375 L 1.000030517578125 0.99993896484375 M 3.0517578125e-05 -6.103515625e-05 L 380 -6.103515625e-05 C 380 -6.103515625e-05 337.7556762695313 380.0701599121094 242.7556762695313 589.791015625 C 147.7556762695313 799.5118408203125 3.0517578125e-05 838.8833618164063 3.0517578125e-05 838.8833618164063 L 3.0517578125e-05 -6.103515625e-05 Z" stroke="none" fill="#707070"/>
  </g>
</svg>
