<svg xmlns="http://www.w3.org/2000/svg" xmlns:xlink="http://www.w3.org/1999/xlink" width="403" height="266.002" viewBox="0 0 403 266.002">
  <defs>
    <filter id="artist_heading" x="0" y="0" width="403" height="266.002" filterUnits="userSpaceOnUse">
      <feOffset dy="3" input="SourceAlpha"/>
      <feGaussianBlur stdDeviation="3" result="blur"/>
      <feFlood flood-opacity="0.129"/>
      <feComposite operator="in" in2="blur"/>
      <feComposite in="SourceGraphic"/>
    </filter>
  </defs>
  <g id="artist_heading-2" data-name="artist heading" transform="translate(9 6)">
    <g transform="matrix(1, 0, 0, 1, -9, -6)" filter="url(#artist_heading)">
      <g id="artist_heading-3" data-name="artist heading" transform="translate(9 6)" fill="#30372f">
        <path d="M 382.4999694824219 242.3205718994141 C 375.6219482421875 236.155029296875 360.7706604003906 223.3673706054688 340.9530944824219 209.2659149169922 C 342.7623901367188 203.6266479492188 343.6785278320313 197.7053375244141 343.6785278320313 191.6356658935547 C 343.6785278320313 163.1040191650391 323.1330261230469 139.8918151855469 297.8792114257813 139.8918151855469 C 287.3219604492188 139.8918151855469 277.2916259765625 143.9084167480469 269.1816101074219 151.2964019775391 C 264.0175476074219 128.6030883789063 246.0103912353516 112.6005706787109 224.8437194824219 112.6005706787109 C 210.7073516845703 112.6005706787109 197.5059661865234 119.9077072143555 188.8481140136719 132.3377990722656 C 180.1903076171875 119.9077072143555 166.9889221191406 112.6005706787109 152.8524627685547 112.6005706787109 C 132.0629730224609 112.6005706787109 114.1075134277344 128.2966918945313 108.6986694335938 150.537109375 C 100.7368545532227 143.6415710449219 91.00461578369141 139.8918151855469 80.86031341552734 139.8918151855469 C 55.60651397705078 139.8918151855469 35.06101608276367 163.1040191650391 35.06101608276367 191.6356658935547 C 35.06101608276367 198.2477111816406 36.14315032958984 204.6633453369141 38.27997207641602 210.7346801757813 C 21.36655426025391 223.8913726806641 8.72850513458252 235.7891387939453 2.500015258789063 241.9210815429688 L 2.500015258789063 3.091776609420776 C 11.00557708740234 4.886434078216553 36.57783889770508 10.11115741729736 69.33076477050781 15.21921920776367 C 106.7111129760742 21.04891967773438 161.7401580810547 27.9981689453125 211.6194610595703 27.9981689453125 C 261.5469055175781 27.9981689453125 306.2188720703125 21.03781890869141 334.9022216796875 15.19881916046143 C 358.6563110351563 10.36322021484375 375.6877136230469 5.472198486328125 382.5000610351563 3.401050329208374 L 382.4999694824219 242.3205718994141 Z" stroke="none"/>
        <path d="M 379.9999694824219 236.7801208496094 L 380.0000610351563 6.754258632659912 C 371.7394714355469 9.171904563903809 356.0968017578125 13.43557929992676 335.4009094238281 17.64859962463379 C 306.6049499511719 23.51049613952637 261.7550659179688 30.4981803894043 211.6194915771484 30.4981803894043 C 161.5799560546875 30.4981803894043 106.4132232666016 23.53270530700684 68.94554138183594 17.6893367767334 C 39.35800933837891 13.07496643066406 15.64226531982422 8.370609283447266 5.000015258789063 6.168151378631592 L 5.000015258789063 236.0271301269531 C 11.7670373916626 229.5959777832031 22.22220230102539 220.1508941650391 35.34855270385742 209.8523559570313 C 33.49726486206055 204.0246734619141 32.56101608276367 197.9140777587891 32.56101608276367 191.6356506347656 C 32.56101608276367 161.7254943847656 54.2280158996582 137.3918151855469 80.86032867431641 137.3918151855469 C 90.35595703125 137.3918151855469 99.50025177001953 140.4819793701172 107.3040313720703 146.2239685058594 C 114.0049743652344 124.8571853637695 132.0824737548828 110.1006011962891 152.8524932861328 110.1006011962891 C 166.7380523681641 110.1006011962891 179.7529449462891 116.732048034668 188.84814453125 128.1546783447266 C 197.9433441162109 116.732048034668 210.9582366943359 110.1006011962891 224.84375 110.1006011962891 C 245.9591979980469 110.1006011962891 264.0832824707031 125.0989151000977 270.5954284667969 146.8480987548828 C 278.5671997070313 140.699951171875 287.9998779296875 137.3918151855469 297.8792114257813 137.3918151855469 C 324.5115356445313 137.3918151855469 346.1785278320313 161.7254943847656 346.1785278320313 191.6356506347656 C 346.1785278320313 197.3395843505859 345.402099609375 202.9197845458984 343.8665771484375 208.2747497558594 C 359.7286682128906 219.6488952636719 372.2998046875 230.0816192626953 379.9999694824219 236.7801208496094 M 384.9999694824219 248.0019683837891 L 384.998291015625 248.0003356933594 C 384.8195495605469 247.8282318115234 366.3274841308594 230.2314453125 337.9865417480469 210.2276458740234 C 340.1044311523438 204.3239135742188 341.1785278320313 198.0691833496094 341.1785278320313 191.6356506347656 C 341.1785278320313 164.4824981689453 321.7545471191406 142.3918151855469 297.8792114257813 142.3918151855469 C 286.4871826171875 142.3918151855469 275.730224609375 147.3829650878906 267.5900268554688 156.4459228515625 C 264.1927490234375 132.4885406494141 246.216064453125 115.1006011962891 224.84375 115.1006011962891 C 210.3722839355469 115.1006011962891 196.916015625 123.2744445800781 188.8481140136719 136.9656066894531 C 180.7802734375 123.2744445800781 167.3246002197266 115.1006011962891 152.8524932861328 115.1006011962891 C 131.9094848632813 115.1006011962891 113.9940643310547 132.0809631347656 110.2536468505859 155.4761810302734 C 102.2318572998047 147.038818359375 91.79375457763672 142.3918151855469 80.86032867431641 142.3918151855469 C 56.98501586914063 142.3918151855469 37.56101608276367 164.4824981689453 37.56101608276367 191.6356506347656 C 37.56101608276367 198.5785522460938 38.80627822875977 205.2912292480469 41.26217269897461 211.5872802734375 C 16.12417221069336 230.9656982421875 0.1583310514688492 247.8313446044922 1.52587890625e-05 247.9994354248047 L 1.52587890625e-05 2.156468508474063e-05 C 0.2695415616035461 0.05944261699914932 29.34622573852539 6.453126907348633 69.71601867675781 12.74907398223877 C 107.0088043212891 18.56512641906738 161.8999176025391 25.4981803894043 211.6194915771484 25.4981803894043 C 261.3390197753906 25.4981803894043 305.8329162597656 18.56512641906738 334.4035339355469 12.74907398223877 C 365.3637390136719 6.446547985076904 384.8072814941406 0.06375841051340103 385.0000610351563 2.156468508474063e-05 L 384.9999694824219 247.9994354248047 L 384.9999694824219 248.0019683837891 Z" stroke="none" fill="#fff"/>
      </g>
    </g>
  </g>
</svg>
